<svg viewBox="0 0 240 146">
    <path
        d="M15.176 12.051v16.523c0 .273-.013.67-.04 1.191h2.013v3.985h-2.48v.664h.878v5.547c-.469.026-.814.039-1.035.039h-3.848v-5.41H6.582v.468H.567c-.066 0-.098-.026-.098-.078v-.996h2.246v-.605H.469v-1.875c.117-.339 1.4-3.08 3.848-8.223H1.074v-.625H4.65c-.183.365-.274.573-.274.625h4.317c.065 0 .175-.208.332-.625H4.649v-.04c0-.025 1.68-3.547 5.039-10.565h5.488zm-5.489 9.297c0 .091-.208.527-.624 1.309h.664v-1.309h-.04zm.079 1.308v.625h1.601v-.625H9.766zm-4.414 7.657h5.273v-.547h-.898V23.28h-.899c-.065 0-.625 1.127-1.68 3.38zM26.525 12.03c3.776 0 6.224 1.055 7.344 3.164.651 1.29.977 2.246.977 2.871.26.925.39 3.047.39 6.367v.782h-2.675v.527h2.675v-.527h3.106v.527h-3.066c0 2.708-.098 5.742-.293 9.102v1.796h-2.48V40H20.92v-1.895h-2.324v-8.652h1.601v-.742h-2.48v-2.676c0-5.781.488-9.381 1.465-10.8.573-1.173 1.562-2.045 2.969-2.618 1.263-.39 2.72-.586 4.375-.586zm-3.164 18.184v.586h.82v4.082h3.321v-.371h2.48v-6.914h-.449c0-4.623-.143-7.364-.43-8.223-.442-1.654-1.256-2.48-2.44-2.48h-.43c-1.355 0-2.201.956-2.54 2.87-.221.756-.332 4.239-.332 10.45zm28.05-18.164v16.523c0 .273-.014.67-.04 1.191h2.012v3.985h-2.48v.664h.878v5.547c-.468.026-.813.039-1.035.039H46.9v-5.41h-4.082v.468H36.8c-.065 0-.098-.026-.098-.078v-.996h2.246v-.605h-2.246v-1.875c.117-.339 1.4-3.08 3.848-8.223h-3.242v-.625h3.574c-.182.365-.273.573-.273.625h4.316c.065 0 .176-.208.332-.625h-4.375v-.04c0-.025 1.68-3.547 5.04-10.565h5.487zm-5.49 9.297c0 .091-.207.527-.624 1.309h.664v-1.309h-.04zM46 22.656v.625h1.602v-.625H46zm-4.414 7.657h5.273v-.547h-.898V23.28h-.899c-.065 0-.625 1.127-1.68 3.38z"
        transform="matrix(3.7797 0 0 3.7797 18.228 -25.474)"
    />
</svg>
