<svg viewBox="0 0 240 118">
    <path
        d="M.703 12.07h9.57c3.204 0 5.274 1.126 6.211 3.379.404 1.159.606 2.487.606 3.984v1.172c0 2.709-.593 4.772-1.777 6.192H13.28v1.035h3.106v6.68H14.55v1.035h2.773v3.945h-5.82v-6.309H9.258v-4.082H5.352v6.914h.84V40H.8c-.065 0-.098-.033-.098-.098v-11.21h2.402v-.802H.703V12.07zm5.488 4.551v7.89H7.52c1.992 0 3.144-.188 3.457-.566.325-.208.579-.631.761-1.27h2.07v-.996h-1.874v.098c-.105.6-.183.899-.235.899H9.023v-.996h2.813c.065 0 .097-.027.097-.079.027-.807.04-1.263.04-1.367 0-1.745-.3-2.812-.899-3.203-.469-.273-1.328-.41-2.578-.41H6.191zm-.605 12.715h.234c.13.065.196.163.196.293.052 0 .11-.098.175-.293h.293v.059l-.293.41c0 .026.111.202.332.527v.04H6.29c-.026 0-.117-.112-.273-.333-.092.208-.17.32-.235.332h-.234c.208-.325.312-.514.312-.566zm.039 1.406h.86v.156l-.528.645h.527v.234h-.898v-.175l.508-.664h-.469v-.196zm22.365-18.73c4.01 0 6.647 1.406 7.91 4.219.716 1.367 1.074 4.004 1.074 7.91v.137h-2.07v.937h2.07v10.098h-1.367v3.653h-2.715V40H23.4v-1.035h-1.172v-3.653h-2.441v-2.851h1.465v-1.485h-1.465v1.485H16.33v-1.485h2.617c-.026-2.291-.039-4.043-.039-5.254v-2.382c0-4.428.749-7.39 2.246-8.887 1.38-1.628 3.659-2.442 6.836-2.442zm-3.418 9.648h.04l-.04.078v2.54h-2.11v.937h2.11c-.039 4.023-.058 7.064-.058 9.12v.977H29.2V33.77h2.149v-.039c0-1.9-.013-4.55-.04-7.949 0-.143.014-.508.04-1.094 0-3.685-.215-5.944-.645-6.777-.443-.807-1.256-1.21-2.441-1.21h-.703c-1.407 0-2.28.618-2.618 1.855-.156.625-.28 1.66-.37 3.105zm12.403 2.617h3.36v.938h-3.36v-.938zm.234 1.114h.098c.078 0 .136.189.175.566.053 0 .13-.188.235-.566h.137c.078 0 .143.202.195.605h.039l.137-.605h.234v.059c-.143.677-.247 1.015-.312 1.015h-.196c0-.052-.045-.254-.136-.605h-.04c-.052.403-.117.605-.195.605h-.195a10.806 10.806 0 0 0-.274-1.015zm.098 1.406h.176c.078 0 .176.221.293.664h.039c0-.065.058-.286.176-.664h.332v1.074h-.235v-.547h-.039c-.09.365-.17.547-.234.547h-.137c-.091-.286-.137-.456-.137-.508h-.058c0 .339-.033.508-.098.508h-.176v-.976c.013-.065.046-.098.098-.098zm-.157 1.406h.195c.157.091.235.202.235.332.013 0 .104-.11.273-.332h.195v.098l-.273.41c0 .026.104.202.313.527v.04h-.235l-.273-.333c-.104.222-.183.332-.235.332h-.234c.221-.325.332-.514.332-.566-.195-.287-.293-.456-.293-.508zm.157 1.406h.273c.313 0 .47.11.47.332v.04l-.098.136c.052 0 .097.052.136.156v.176c-.065.156-.221.234-.468.234h-.41v-.976c.012-.065.045-.098.097-.098zm.175.235v.195h.293v-.195h-.293zm-7.246 0h.273v.371h.332v-.273c.014-.065.046-.098.098-.098h.176v1.035h-.273v-.43h-.333v.43h-.273v-1.035zm7.246.37v.235h.332v-.137c0-.065-.032-.097-.098-.097h-.234zm-.175.802h.605c.053.013.079.045.079.097v.137h-.508v.176h.469v.234h-.47v.195h.509v.235h-.782v-.977c.013-.065.046-.097.098-.097zm-7.071.234h.781v.098c0 .117-.156.351-.468.703.351 0 .527.026.527.078v.156h-.899v-.195c.235-.274.391-.475.47-.606h-.411v-.234zm-4.922 1.348c.274 0 .43.208.47.625 0 .3-.19.468-.567.508-.313-.079-.469-.248-.469-.508 0-.417.189-.625.566-.625zm5.196.058h.274c0 .078.13.417.39 1.016h-.234c-.065 0-.098-.059-.098-.176h-.332c-.065 0-.098.059-.098.176h-.273v-.04c.065-.116.189-.442.371-.976zm-5.469.371v.196c0 .182.091.273.273.273.13-.026.196-.117.196-.273v-.196c0-.052-.065-.117-.196-.195h-.097c-.04 0-.098.065-.176.195zm5.566 0-.059.235h.196c-.04-.157-.085-.235-.137-.235zm-5.39.977c.208 0 .364.098.469.293v.137h-.235c0-.13-.09-.196-.273-.196l-.137.196v.175c0 .196.091.293.273.293.027 0 .105-.078.235-.234h.195c0 .26-.176.417-.527.469-.313-.091-.469-.267-.469-.528.04-.403.195-.605.469-.605zm22.6-21.914c3.098 0 5.175.996 6.23 2.988.729 1.51 1.094 2.989 1.094 4.434h-.04c-2.122.182-3.574.273-4.355.273 0-1.028-.319-1.894-.957-2.597-.599-.339-1.152-.508-1.66-.508h-.781c-1.328 0-2.136.514-2.422 1.543a3.54 3.54 0 0 0-.098.703v.41c0 1.458.768 2.513 2.305 3.164.13.117 1.198.606 3.203 1.465a14.486 14.486 0 0 1 2.969 1.836v.039h-4.903v.547h6.465v.781h.82v8.477h-1.601V40H41.664v-4.355h-2.93v-2.93h1.66v-1.016h-1.66v-.683h5.684v4.629h5.82v-6.973h-4.355v-2.285h-5.41v-.547h2.617v-.04c-2.292-1.523-3.438-3.677-3.438-6.464v-.371c0-2.33.716-4.102 2.148-5.313 1.303-1.041 3.308-1.562 6.016-1.562zm7.05 13.75h1.973v.547h-1.973v-.547zM36.86 31.7h1.875v1.015H36.86v-1.016zm12.52 0h.586c.065.012.098.045.098.097v.137h-.508v.175h.45v.137c0 .065-.027.098-.079.098h-.37v.195h.507v.137c0 .052-.033.078-.098.078h-.586c-.065 0-.097-.026-.097-.078v-.88c.013-.064.045-.097.097-.097zm-.235 1.386h.176c.026 0 .137.117.332.351.091-.234.163-.351.215-.351h.137c.065 0 .097.026.097.078-.273.313-.41.638-.41.977h-.137c-.065 0-.11-.183-.136-.547-.183-.248-.274-.417-.274-.508zm-.137 1.367h.176c.078 0 .156.202.234.606h.098c.078-.404.15-.606.215-.606h.195c.052.013.078.046.078.098v.86c0 .064-.026.097-.078.097h-.136v-.586h-.06l-.175.586h-.137c-.065 0-.143-.196-.234-.586h-.039v.586h-.137c-.065 0-.097-.033-.097-.098v-.86c.013-.064.045-.097.097-.097zm5.352 1.426h.469c.247 0 .371.124.371.371-.065 0-.098.026-.098.078a.552.552 0 0 1 .137.332c-.078.182-.247.274-.508.274h-.273c-.065 0-.098-.033-.098-.098v-.957zm.273.234v.176h.196c.052 0 .078-.032.078-.098v-.078h-.274zm0 .352v.234h.235c.065 0 .097-.032.097-.097v-.04c0-.065-.032-.097-.097-.097h-.235zm-.273.781h.196c.065 0 .201.215.41.645h.039v-.645h.234v.957c0 .065-.032.098-.097.098h-.098c-.026 0-.176-.196-.45-.586v.488c0 .065-.032.098-.097.098h-.04c-.064 0-.097-.033-.097-.098v-.957zm4.553-25.215h13.79v4.57c0 .065-.033.098-.099.098H64.42v6.074h7.344v.04c0 .182-.033 1.171-.098 2.968-.026 0-.04.02-.04.059h.333v1.406h-6.367v5.742h-1.7v.567h1.7v1.738h7.207v.664h-.567v3.437H63.62V40h-4.102V29.98h-.605v-3.535h-4.473v-.606h4.473V12.03zm.04 13.809v.605h2.304v-.605H58.95zm7.07 8.047h.332v.468h.039c0-.09.143-.247.43-.468h.331l-.468.507.507.762h-.332c-.247-.351-.384-.527-.41-.527-.065.013-.097.045-.097.098v.43h-.332v-1.27zm1.64 0h.664c.208 0 .351.123.43.37 0 .04-.066.15-.196.333.091 0 .156.189.195.566h-.234c-.065 0-.117-.156-.156-.469h-.371v.47h-.332v-1.27zm2.129 0h.176c.286 0 .462.188.527.566v.176a.552.552 0 0 1-.137.332v.058c.091 0 .137.027.137.079s-.046.104-.137.156c-.052 0-.104-.052-.156-.156l-.235.058h-.175c-.313 0-.489-.234-.528-.703.092-.377.267-.566.528-.566zm-.195.566v.137c0 .221.11.332.332.332h.039v-.059h-.078v-.039c0-.052.045-.097.136-.137l.137.079c0-.013.013-.105.04-.274-.014-.247-.138-.37-.372-.37-.156.038-.234.149-.234.331zm-1.602-.293v.293h.332c.065 0 .097-.032.097-.097v-.098c0-.065-.032-.098-.097-.098h-.332zm4.532 2.07h.273v.06c0 .559-.045.839-.137.839s-.136-.202-.136-.606v-.293zm0 .938h.273v.293h-.273v-.293z"
        transform="matrix(2.77408 0 0 2.77408 18.05 -13.322)"
    />
</svg>
